<svg width="56" height="55" viewBox="0 0 56 55" fill="none" xmlns="http://www.w3.org/2000/svg">
<rect x="0.5" y="0.5" width="55" height="53.5778" rx="26.7889" fill="white"/>
<rect x="0.5" y="0.5" width="55" height="53.5778" rx="26.7889" stroke="#F2F5F7"/>
<path d="M44 27.2889C44 28.923 42.1485 30.2453 41.6686 31.7198C41.1712 33.248 41.8729 35.4001 40.9449 36.6722C40.0077 37.957 37.733 37.9518 36.4452 38.8868C35.1701 39.8126 34.4772 41.9776 32.9454 42.4738C31.4674 42.9525 29.638 41.6229 28 41.6229C26.362 41.6229 24.5326 42.9525 23.0546 42.4738C21.5228 41.9776 20.8299 39.8126 19.5548 38.8868C18.267 37.9518 15.9923 37.957 15.0551 36.6722C14.1271 35.4002 14.8288 33.248 14.3314 31.7198C13.8515 30.2453 12 28.923 12 27.2889C12 25.6548 13.8515 24.3325 14.3314 22.858C14.8288 21.3298 14.1271 19.1777 15.0551 17.9056C15.9923 16.6208 18.267 16.626 19.5548 15.691C20.8299 14.7652 21.5228 12.6002 23.0546 12.104C24.5326 11.6252 26.362 12.9548 28 12.9548C29.638 12.9548 31.4674 11.6252 32.9454 12.104C34.4772 12.6002 35.1701 14.7653 36.4452 15.691C37.733 16.626 40.0077 16.6208 40.9449 17.9056C41.8729 19.1776 41.1712 21.3298 41.6686 22.858C42.1485 24.3325 44 25.6547 44 27.2889Z" fill="#55AE7B"/>
<path d="M33.2681 22.1651L25.4152 30.0087C24.324 28.8275 22.6317 26.9957 22.6317 26.9957C22.1153 26.4373 21.2425 26.394 20.6738 26.9031C20.1003 27.4166 20.0526 28.2966 20.5673 28.8688L24.3129 33.0329C24.3695 33.0968 24.4293 33.1612 24.4972 33.2153C25.0821 33.6981 25.9486 33.6164 26.4325 33.0329L34.5108 23.2926C35.1609 22.4465 34.0441 21.4393 33.2681 22.1651Z" fill="white"/>
</svg>
