<svg width="24" height="24" viewBox="0 0 24 24" fill="none" xmlns="http://www.w3.org/2000/svg">
<path d="M22.8549 13.3768C22.8677 12.24 22.8701 11.1 22.8509 9.96795C22.8341 8.38075 22.3061 6.84155 21.3453 5.57835C20.0437 3.87515 18.5149 2.35755 16.8013 1.06955C16.1053 0.539151 15.2589 0.243951 14.3845 0.224751C14.2597 0.224751 14.1349 0.224751 14.0101 0.220751C14.0029 0.220751 13.9973 0.216751 13.9909 0.216751C13.9845 0.216751 13.9797 0.216751 13.9741 0.216751C13.3517 0.209551 12.7301 0.199951 12.1085 0.199951C9.63891 0.220751 7.51171 0.266351 5.27091 0.423951C3.17491 0.570351 1.50931 2.24235 1.37091 4.33915C1.21091 6.87995 1.13091 9.45915 1.13491 12C1.13491 13.2144 1.15171 14.4144 1.18611 15.6C1.19891 15.9296 1.47251 16.1888 1.80291 16.1832C2.13411 16.1736 2.39491 15.8976 2.38531 15.5664C2.35171 14.3928 2.33491 13.204 2.33491 12C2.33491 9.48155 2.41491 6.92955 2.56851 4.41515C2.66691 2.91835 3.85651 1.72475 5.35331 1.62075C7.53411 1.46795 9.58451 1.39995 12.0013 1.39995C12.4661 1.39995 12.9277 1.40955 13.3901 1.41435V6.32715C13.4037 7.67595 14.4925 8.76635 15.8413 8.78235C19.7285 8.89435 21.5789 10.3704 21.6573 13.412C21.6341 15.4744 21.5645 17.54 21.4365 19.5848C21.3381 21.0816 20.1485 22.2752 18.6525 22.3792C16.4709 22.532 14.4205 22.6 12.0029 22.6C9.79651 22.5952 7.56131 22.5312 5.35571 22.3792C3.85971 22.2752 2.67091 21.0816 2.57171 19.5856L2.53971 19.12C2.51971 18.7888 2.23491 18.536 1.90371 18.556C1.57251 18.576 1.31971 18.8608 1.33971 19.192L1.36851 19.6608C1.50611 21.7584 3.17331 23.4312 5.27011 23.576C7.41811 23.7248 9.59491 23.8 11.7429 23.8C14.2693 23.7944 16.4445 23.736 18.7317 23.576C20.8277 23.4296 22.4933 21.7576 22.6309 19.6608C22.7549 17.6736 22.8245 15.6688 22.8509 13.6664C22.8509 13.648 22.8621 13.632 22.8621 13.6128C22.8621 13.5328 22.8573 13.4528 22.8549 13.3768ZM15.8725 7.58235C15.1749 7.58235 14.6061 7.02395 14.5925 6.32715V1.44795C15.1293 1.49915 15.6413 1.69755 16.0725 2.02155C17.7013 3.24715 19.1549 4.69035 20.3925 6.31035C21.1517 7.31595 21.5845 8.53115 21.6317 9.79035C20.6245 8.57275 18.8637 7.66875 15.8725 7.58235Z" fill="#121418"/>
<path d="M5.28115 8.98711H11.37C11.7012 8.98711 11.97 8.71831 11.97 8.38711C11.97 8.05591 11.7012 7.78711 11.37 7.78711H5.28115C4.94995 7.78711 4.68115 8.05591 4.68115 8.38711C4.68115 8.71831 4.94995 8.98711 5.28115 8.98711Z" fill="#121418"/>
<path d="M5.28115 13.9039H17.1788C17.51 13.9039 17.7788 13.6351 17.7788 13.3039C17.7788 12.9727 17.51 12.7039 17.1788 12.7039H5.28115C4.94995 12.7039 4.68115 12.9727 4.68115 13.3039C4.68115 13.6351 4.94995 13.9039 5.28115 13.9039Z" fill="#121418"/>
<path d="M5.28115 18.8216H17.1788C17.51 18.8216 17.7788 18.5528 17.7788 18.2216C17.7788 17.8904 17.51 17.6216 17.1788 17.6216H5.28115C4.94995 17.6216 4.68115 17.8904 4.68115 18.2216C4.68115 18.5528 4.94995 18.8216 5.28115 18.8216Z" fill="#121418"/>
</svg>
