<svg width="24" height="24" viewBox="0 0 24 24" fill="none" xmlns="http://www.w3.org/2000/svg">
<g clip-path="url(#clip0_2561_19469)">
<path d="M19.2214 5.32808H17.2054V4.10488C17.2054 3.94575 17.1421 3.79314 17.0296 3.68062C16.9171 3.5681 16.7645 3.50488 16.6054 3.50488C16.4462 3.50488 16.2936 3.5681 16.1811 3.68062C16.0686 3.79314 16.0054 3.94575 16.0054 4.10488V5.32808H13.9062C13.747 5.32808 13.5944 5.3913 13.4819 5.50382C13.3694 5.61634 13.3062 5.76895 13.3062 5.92808C13.3062 6.08721 13.3694 6.23982 13.4819 6.35235C13.5944 6.46487 13.747 6.52808 13.9062 6.52808H14.771C14.796 7.43501 15.1626 8.29903 15.7974 8.94728L14.2622 9.83128C14.1242 9.91074 14.0235 10.0417 13.9822 10.1954C13.9617 10.2715 13.9565 10.3509 13.9667 10.4291C13.9769 10.5072 14.0024 10.5826 14.0418 10.6509C14.0811 10.7192 14.1335 10.779 14.196 10.8271C14.2585 10.8751 14.3298 10.9104 14.4059 10.9308C14.5596 10.9722 14.7234 10.9507 14.8614 10.8713L16.6214 9.85528C16.687 9.81768 16.743 9.76808 16.8054 9.72728L18.4654 10.8473C18.5972 10.931 18.7564 10.9601 18.9093 10.9283C19.0622 10.8965 19.1967 10.8064 19.2842 10.677C19.3716 10.5477 19.4053 10.3893 19.3778 10.2356C19.3504 10.0818 19.2642 9.94483 19.1374 9.85368L17.7446 8.91208L18.0718 8.52968C18.1752 8.40864 18.2263 8.25146 18.2138 8.09273C18.2014 7.934 18.1264 7.78672 18.0054 7.68328C17.8843 7.57985 17.7271 7.52874 17.5684 7.54119C17.4097 7.55364 17.2624 7.62864 17.159 7.74968L16.7902 8.18088C16.7838 8.18888 16.7758 8.19448 16.7694 8.20168C16.5325 7.98955 16.3404 7.73223 16.2044 7.44482C16.0684 7.15742 15.9912 6.84574 15.9774 6.52808H19.2214C19.3805 6.52808 19.5331 6.46487 19.6456 6.35235C19.7581 6.23982 19.8214 6.08721 19.8214 5.92808C19.8214 5.76895 19.7581 5.61634 19.6456 5.50382C19.5331 5.3913 19.3805 5.32808 19.2214 5.32808Z" fill="#121418"/>
<path fill-rule="evenodd" clip-rule="evenodd" d="M16.5637 0.199712C14.6447 0.202043 12.805 0.965728 11.4485 2.32312C10.092 3.68052 9.32957 5.5207 9.32851 7.43971C9.32851 7.52369 9.33423 7.60623 9.33993 7.68853C9.34276 7.72934 9.34559 7.77008 9.34771 7.81091H3.99971C2.99227 7.81218 2.02647 8.21295 1.3141 8.92531C0.601741 9.63767 0.200977 10.6035 0.199707 11.6109V17.6477C0.201277 18.6312 0.583491 19.576 1.26624 20.284C1.94899 20.9919 2.87927 21.4081 3.86211 21.4453L3.63891 22.3701C3.58429 22.5968 3.59948 22.8348 3.68249 23.0527C3.7655 23.2707 3.91244 23.4585 4.10405 23.5914C4.29566 23.7244 4.52298 23.7963 4.7562 23.7978C4.98941 23.7993 5.21763 23.7302 5.41091 23.5997L8.55171 21.4797C8.58444 21.4573 8.62321 21.4453 8.66291 21.4453H12.3997C12.7311 21.4453 12.9997 21.1767 12.9997 20.8453C12.9997 20.5139 12.7311 20.2453 12.3997 20.2453H8.66291C8.38343 20.2449 8.11028 20.3286 7.87891 20.4853L4.83171 22.5453L5.06131 21.5909C5.09999 21.4306 5.10172 21.2636 5.06637 21.1025C5.03102 20.9414 4.95951 20.7905 4.85725 20.6611C4.75499 20.5317 4.62465 20.4272 4.47609 20.3556C4.32753 20.284 4.16463 20.2471 3.99971 20.2477C3.3104 20.2469 2.64958 19.9727 2.16216 19.4853C1.67475 18.9978 1.40055 18.337 1.39971 17.6477V11.6069C1.40055 10.9176 1.67475 10.2568 2.16216 9.76937C2.64958 9.28196 3.3104 9.00776 3.99971 9.00691H9.50531C9.85307 10.5563 10.7005 11.9484 11.917 12.969C13.1336 13.9895 14.6519 14.5819 16.2381 14.6549V17.6453C16.2373 18.3346 15.9631 18.9954 15.4756 19.4829C15.4192 19.5393 15.3604 19.5929 15.2996 19.6435C15.123 19.7904 14.9997 19.9987 14.9997 20.2284C14.9997 20.6925 15.4678 21.006 15.8455 20.7361C16.0147 20.6152 16.1747 20.4799 16.3237 20.3309C17.0361 19.6186 17.4368 18.6527 17.4381 17.6453V14.6133C19.2688 14.3926 20.9461 13.481 22.1271 12.0649C23.3081 10.6488 23.9036 8.8351 23.7919 6.99454C23.7348 6.05257 23.4946 5.13998 23.0937 4.30412C22.7943 3.68016 21.9997 3.94756 21.9997 4.6396C21.9997 4.75262 22.0259 4.86386 22.0721 4.967C22.419 5.74131 22.6004 6.58369 22.5997 7.43971C22.597 9.03927 21.96 10.5725 20.8285 11.7031C19.697 12.8337 18.1633 13.4694 16.5637 13.4709C15.3697 13.4709 14.2025 13.1168 13.2098 12.4533C12.2171 11.7899 11.4434 10.8469 10.9867 9.74368C10.53 8.64047 10.4108 7.42658 10.644 6.25558C10.8773 5.08458 11.4527 4.00908 12.2973 3.16512C13.1419 2.32116 14.2179 1.74667 15.3891 1.51431C16.5603 1.28195 17.7741 1.40217 18.8769 1.85975C18.9411 1.8864 19.0048 1.91411 19.0679 1.94289C19.4806 2.13105 19.9997 1.85274 19.9997 1.3992C19.9997 1.1923 19.8868 1.00048 19.7003 0.911015C18.7297 0.445517 17.6588 0.198395 16.5637 0.199712Z" fill="#121418"/>
<path d="M9.73659 12.5C9.65881 12.3213 9.53053 12.1693 9.36751 12.0625C9.20449 11.9558 9.01385 11.899 8.81899 11.8992C8.62415 11.899 8.43352 11.9559 8.27061 12.0628C8.1077 12.1697 7.97963 12.322 7.90219 12.5008L6.70699 15.2608L5.89819 17.1248C5.83454 17.2707 5.83149 17.436 5.8897 17.5843C5.94791 17.7325 6.06262 17.8515 6.20859 17.9152C6.35457 17.9788 6.51985 17.9819 6.66808 17.9237C6.81631 17.8655 6.93534 17.7507 6.99899 17.6048L7.65179 16.0992H9.98619L10.6398 17.6C10.6713 17.6723 10.7168 17.7376 10.7735 17.7923C10.8303 17.847 10.8973 17.89 10.9707 17.9189C11.0441 17.9477 11.1225 17.9618 11.2013 17.9603C11.2801 17.9589 11.3579 17.9419 11.4302 17.9104C11.5025 17.8789 11.5678 17.8334 11.6226 17.7766C11.6773 17.7199 11.7203 17.6529 11.7491 17.5795C11.7779 17.5061 11.792 17.4277 11.7905 17.3489C11.7891 17.27 11.7721 17.1922 11.7406 17.12L9.73659 12.5ZM8.17179 14.8952L8.81899 13.4008L9.46619 14.8952H8.17179Z" fill="#121418"/>
</g>
<defs>
<clipPath id="clip0_2561_19469">
<rect width="24" height="24" fill="white"/>
</clipPath>
</defs>
</svg>
